<?xml version="1.0" encoding="utf-8"?>
<!-- Generator: Adobe Illustrator 24.0.2, SVG Export Plug-In . SVG Version: 6.00 Build 0)  -->
<svg version="1.1" id="Layer_1" xmlns="http://www.w3.org/2000/svg" xmlns:xlink="http://www.w3.org/1999/xlink" x="0px" y="0px"
	 viewBox="0 0 202 41.6" style="enable-background:new 0 0 202 41.6;" xml:space="preserve">
<style type="text/css">
	.st0{fill:#FFFFFF;}
</style>
<path class="st0" d="M57.9,20.8c0,6.3-5.3,11.3-11.9,11.3s-11.9-5-11.9-11.3S39.4,9.4,46,9.4S57.9,14.5,57.9,20.8 M50.3,20.7
	c0-2.4-1.9-4.4-4.4-4.4c-2.4,0-4.4,2-4.4,4.4s1.9,4.4,4.4,4.4S50.3,23.1,50.3,20.7 M89.8,16.2c0,9-6.4,15.2-15.3,15.2h-13
	c-0.6,0-1.1-0.5-1.1-1.1V2.2c0-0.6,0.5-1,1.1-1h13C83.5,1.1,89.8,7.2,89.8,16.2 M81.6,16.2c0-4.2-3-7.9-7.3-7.9h-6.1v16h6.1
	C78.7,24.3,81.6,20.4,81.6,16.2 M101.4,9.4c2.6,0,4.6,1,5.5,2.3v-0.6c0-0.6,0.5-1,1-1h5.4c0.6,0,1,0.4,1,1v19.4c0,0.6-0.4,1-1,1
	h-5.4c-0.6,0-1-0.4-1-1v-0.8c-0.9,1.3-3,2.3-5.6,2.3c-5.5,0-10.8-4.4-10.8-11.4S95.9,9.4,101.4,9.4 M102.5,25.1c2.4,0,4.4-2,4.4-4.4
	s-1.9-4.4-4.4-4.4c-2.4,0-4.4,2-4.4,4.4S100.1,25.1,102.5,25.1 M126,9.4c2.7,0,4.7,1,5.6,2.2V2.2c0-0.6,0.5-1,1-1h5.5
	c0.6,0,1,0.4,1,1v28.2c0,0.6-0.4,1-1,1h-5.4c-0.6,0-1-0.4-1-1v-0.7c-1.1,1.3-3,2.3-5.6,2.3c-5.5,0-10.8-4.4-10.8-11.4
	S120.6,9.4,126,9.4 M127.3,25.1c2.4,0,4.4-2,4.4-4.4s-1.9-4.4-4.4-4.4s-4.4,2-4.4,4.4S124.9,25.1,127.3,25.1 M150.8,9.4
	c2.7,0,4.7,1,5.6,2.2V2.2c0-0.6,0.5-1,1-1h5.5c0.6,0,1,0.4,1,1v28.2c0,0.6-0.4,1-1,1h-5.4c-0.6,0-1-0.4-1-1v-0.7
	c-1.1,1.3-3,2.3-5.6,2.3c-5.5,0-10.8-4.4-10.8-11.4S145.4,9.4,150.8,9.4 M152.1,25.1c2.4,0,4.4-2,4.4-4.4s-1.9-4.4-4.4-4.4
	s-4.4,2-4.4,4.4S149.7,25.1,152.1,25.1 M182.2,34.5c-1.4,4.5-4.5,7.1-9.5,7.1c-2.7,0-5.3-0.9-7-2.4c-0.3-0.3-0.4-0.6-0.4-0.9
	s0.1-0.6,0.3-0.9l2-3.1c0.3-0.4,0.8-0.5,0.9-0.5c0.5,0,0.7,0.1,1.1,0.4c0.7,0.4,1.5,1,2.5,1c0.8,0,2-0.3,2.4-1.6l0.7-2.2h-3.3
	c-0.7,0-1.1-0.5-1.3-1l-5.5-18.7c-0.1-0.5-0.2-0.7-0.2-0.9c0-0.4,0.3-0.8,0.9-0.8h6.5c0.6,0,0.9,0.5,1,1l3.6,13.4h0.3l2.9-13.4
	c0.1-0.5,0.5-1,1-1h6.6c0.6,0,0.9,0.3,0.9,0.8c0,0.2,0,0.4-0.2,0.9C188.4,11.7,182.2,34.5,182.2,34.5z M26.2,27.2
	c-2.6,3.6-7,4.8-10.8,4.8C6.6,32,0,25.4,0,16.2C0,7.4,7.1,0.4,16.3,0.4c6.8,0,12.3,2.9,14.8,8.4c0.3,0.6,0.5,1.7-1.3,2L25,11.7
	c-1.1,0.2-1.7-0.5-2-0.8c-1.4-1.9-3.7-3.3-6.5-3.3c-4.8,0-8.3,3.7-8.3,8.6c0,5.4,3.9,8.6,8.1,8.6c2.8,0,5.2-1.1,6.7-3.1h-4.3
	c-0.6,0-1.1-0.5-1.1-1.1v-3.9c0-0.6,0.5-1.1,1.1-1.1h13c0.6,0,1.1,0.5,1.1,1.1v13.6c0,0.6-0.5,1.1-1.1,1.1h-4.5
	c-0.6,0-1.1-0.5-1.1-1.1v-3.1C26.1,27.2,26.2,27.2,26.2,27.2z M189.5,7.7c-0.2-0.2-0.4-0.5-0.5-0.8s-0.2-0.6-0.2-0.9
	s0.1-0.6,0.2-0.9s0.3-0.5,0.5-0.8c0.2-0.2,0.5-0.4,0.8-0.5s0.6-0.2,0.9-0.2s0.6,0.1,0.9,0.2s0.5,0.3,0.8,0.5
	c0.2,0.2,0.4,0.5,0.5,0.8s0.2,0.6,0.2,0.9s-0.1,0.6-0.2,0.9s-0.3,0.5-0.5,0.8c-0.2,0.2-0.5,0.4-0.8,0.5s-0.6,0.2-0.9,0.2
	s-0.6-0.1-0.9-0.2C189.9,8.1,189.7,7.9,189.5,7.7z M191.2,8c0.5,0,1-0.2,1.4-0.6s0.6-0.8,0.6-1.4s-0.2-1-0.6-1.4S191.8,4,191.2,4
	c-0.5,0-1,0.2-1.4,0.6s-0.6,0.8-0.6,1.4s0.2,1,0.6,1.4S190.6,8,191.2,8z M190.7,7.4h-0.6V4.6h1.1c0.3,0,0.6,0.1,0.8,0.3
	c0.2,0.2,0.3,0.4,0.3,0.7c0,0.2,0,0.3-0.1,0.5c-0.1,0.1-0.2,0.3-0.4,0.3l0.6,0.9v0.1h-0.7c0,0-0.1,0-0.1-0.1l-0.5-0.8h-0.4
	L190.7,7.4C190.8,7.4,190.7,7.4,190.7,7.4L190.7,7.4z M191.6,5.6c0-0.1,0-0.2-0.1-0.3c-0.1-0.1-0.2-0.1-0.3-0.1h-0.5V6h0.5
	c0.1,0,0.2,0,0.3-0.1S191.6,5.7,191.6,5.6z"/>
</svg>
